<svg xmlns="http://www.w3.org/2000/svg" xmlns:xlink="http://www.w3.org/1999/xlink" width="187" zoomAndPan="magnify" viewBox="0 0 140.25 30.000001" height="40" preserveAspectRatio="xMidYMid meet" version="1.0"><defs><g/><clipPath id="f75b5d10b7"><path d="M 1.898438 0 L 137.625 0 L 137.625 29.03125 L 1.898438 29.03125 Z M 1.898438 0 " clip-rule="nonzero"/></clipPath><clipPath id="29f0e76a2e"><path d="M 1.898438 2.902344 L 83.914062 2.902344 L 83.914062 26.128906 L 1.898438 26.128906 Z M 1.898438 2.902344 " clip-rule="nonzero"/></clipPath><clipPath id="a857610471"><path d="M 4.816406 2.902344 L 80.921875 2.902344 C 81.699219 2.902344 82.441406 3.210938 82.988281 3.757812 C 83.535156 4.304688 83.84375 5.046875 83.84375 5.820312 L 83.84375 23.210938 C 83.84375 23.984375 83.535156 24.726562 82.988281 25.273438 C 82.441406 25.820312 81.699219 26.128906 80.921875 26.128906 L 4.816406 26.128906 C 4.042969 26.128906 3.300781 25.820312 2.753906 25.273438 C 2.207031 24.726562 1.898438 23.984375 1.898438 23.210938 L 1.898438 5.820312 C 1.898438 5.046875 2.207031 4.304688 2.753906 3.757812 C 3.300781 3.210938 4.042969 2.902344 4.816406 2.902344 Z M 4.816406 2.902344 " clip-rule="nonzero"/></clipPath></defs><g clip-path="url(#f75b5d10b7)"><path fill="#ffffff" d="M 1.898438 0 L 137.625 0 L 137.625 29.03125 L 1.898438 29.03125 Z M 1.898438 0 " fill-opacity="1" fill-rule="nonzero"/><path fill="#ffffff" d="M 1.898438 0 L 137.625 0 L 137.625 29.03125 L 1.898438 29.03125 Z M 1.898438 0 " fill-opacity="1" fill-rule="nonzero"/></g><g clip-path="url(#29f0e76a2e)"><g clip-path="url(#a857610471)"><path fill="#5e3bee" d="M 1.898438 2.902344 L 83.824219 2.902344 L 83.824219 26.128906 L 1.898438 26.128906 Z M 1.898438 2.902344 " fill-opacity="1" fill-rule="nonzero"/></g></g><g fill="#000000" fill-opacity="1"><g transform="translate(3.168892, 20.784524)"><g><path d="M 11.65625 -0.1875 C 8.769531 0.0625 6.375 0.1875 4.46875 0.1875 C 3.195312 0.1875 2.265625 -0.109375 1.671875 -0.703125 C 1.078125 -1.296875 0.78125 -2.226562 0.78125 -3.5 L 0.78125 -9.71875 C 0.78125 -11.082031 1.085938 -12.070312 1.703125 -12.6875 C 2.316406 -13.300781 3.304688 -13.609375 4.671875 -13.609375 L 11.65625 -13.609375 L 11.65625 -10.890625 L 5.4375 -10.890625 C 4.664062 -10.890625 4.28125 -10.5 4.28125 -9.71875 L 4.28125 -3.5 C 4.28125 -3.195312 4.363281 -2.957031 4.53125 -2.78125 C 4.707031 -2.613281 4.929688 -2.53125 5.203125 -2.53125 C 5.484375 -2.53125 5.785156 -2.53125 6.109375 -2.53125 C 6.429688 -2.539062 6.765625 -2.550781 7.109375 -2.5625 C 7.460938 -2.570312 7.816406 -2.582031 8.171875 -2.59375 C 8.523438 -2.613281 8.984375 -2.640625 9.546875 -2.671875 C 10.117188 -2.710938 10.820312 -2.757812 11.65625 -2.8125 Z M 11.65625 -0.1875 "/></g></g></g><g fill="#000000" fill-opacity="1"><g transform="translate(15.217132, 20.784524)"><g><path d="M 6.90625 -7.484375 C 6.082031 -7.484375 5.238281 -7.289062 4.375 -6.90625 L 4.375 0 L 0.96875 0 L 0.96875 -10.296875 L 3.984375 -10.296875 L 4.171875 -9.03125 C 5.285156 -10.007812 6.453125 -10.5 7.671875 -10.5 L 8.546875 -10.5 L 8.546875 -7.484375 Z M 6.90625 -7.484375 "/></g></g></g><g fill="#000000" fill-opacity="1"><g transform="translate(24.15615, 20.784524)"><g><path d="M 5.25 -9.90625 L 5.25 0 L 1.84375 0 L 1.84375 -7.296875 L 0.390625 -7.296875 L 0.390625 -9.90625 Z M 1.84375 -13.796875 L 5.25 -13.796875 L 5.25 -11.078125 L 1.84375 -11.078125 Z M 1.84375 -13.796875 "/></g></g></g><g fill="#000000" fill-opacity="1"><g transform="translate(30.374596, 20.784524)"><g><path d="M 0.578125 -2.71875 C 3.210938 -2.53125 5.285156 -2.4375 6.796875 -2.4375 C 6.992188 -2.4375 7.15625 -2.5 7.28125 -2.625 C 7.414062 -2.75 7.484375 -2.910156 7.484375 -3.109375 L 7.484375 -3.796875 L 3.296875 -3.796875 C 2.421875 -3.796875 1.71875 -4.0625 1.1875 -4.59375 C 0.65625 -5.125 0.390625 -5.828125 0.390625 -6.703125 L 0.390625 -7.390625 C 0.390625 -8.265625 0.65625 -8.96875 1.1875 -9.5 C 1.71875 -10.03125 2.421875 -10.296875 3.296875 -10.296875 L 9.90625 -10.296875 L 9.90625 -7.78125 L 4.46875 -7.78125 C 4.269531 -7.78125 4.109375 -7.710938 3.984375 -7.578125 C 3.859375 -7.453125 3.796875 -7.289062 3.796875 -7.09375 C 3.796875 -6.894531 3.859375 -6.734375 3.984375 -6.609375 C 4.109375 -6.484375 4.269531 -6.421875 4.46875 -6.421875 L 7.96875 -6.421875 C 8.851562 -6.421875 9.5625 -6.15625 10.09375 -5.625 C 10.625 -5.09375 10.890625 -4.382812 10.890625 -3.5 L 10.890625 -2.71875 C 10.890625 -1.84375 10.625 -1.140625 10.09375 -0.609375 C 9.5625 -0.078125 8.851562 0.1875 7.96875 0.1875 C 5.675781 0.1875 3.210938 0.0625 0.578125 -0.1875 Z M 0.578125 -2.71875 "/></g></g></g><g fill="#000000" fill-opacity="1"><g transform="translate(41.645532, 20.784524)"><g><path d="M 8.15625 0 C 6.90625 0.125 5.675781 0.1875 4.46875 0.1875 C 3.59375 0.1875 2.890625 -0.078125 2.359375 -0.609375 C 1.828125 -1.140625 1.5625 -1.84375 1.5625 -2.71875 L 1.5625 -7.671875 L 0.390625 -7.671875 L 0.390625 -10.296875 L 1.5625 -10.296875 L 1.9375 -12.640625 L 4.953125 -12.640625 L 4.953125 -10.296875 L 7.390625 -10.296875 L 7.390625 -7.671875 L 4.953125 -7.671875 L 4.953125 -3.203125 C 4.953125 -3.015625 5.015625 -2.851562 5.140625 -2.71875 C 5.273438 -2.59375 5.441406 -2.53125 5.640625 -2.53125 L 8.15625 -2.53125 Z M 8.15625 0 "/></g></g></g><g fill="#000000" fill-opacity="1"><g transform="translate(50.195897, 20.784524)"><g><path d="M 5.25 -9.90625 L 5.25 0 L 1.84375 0 L 1.84375 -7.296875 L 0.390625 -7.296875 L 0.390625 -9.90625 Z M 1.84375 -13.796875 L 5.25 -13.796875 L 5.25 -11.078125 L 1.84375 -11.078125 Z M 1.84375 -13.796875 "/></g></g></g><g fill="#000000" fill-opacity="1"><g transform="translate(56.414344, 20.784524)"><g><path d="M 5.046875 -2.53125 C 5.734375 -2.53125 6.515625 -2.660156 7.390625 -2.921875 L 7.390625 -4.078125 L 4.5625 -4.078125 C 4.375 -4.078125 4.210938 -4.007812 4.078125 -3.875 C 3.953125 -3.75 3.890625 -3.59375 3.890625 -3.40625 L 3.890625 -3.203125 C 3.890625 -3.015625 3.953125 -2.851562 4.078125 -2.71875 C 4.210938 -2.59375 4.375 -2.53125 4.5625 -2.53125 Z M 1.453125 -10.109375 C 3.828125 -10.367188 5.96875 -10.5 7.875 -10.5 C 8.75 -10.5 9.453125 -10.234375 9.984375 -9.703125 C 10.515625 -9.171875 10.78125 -8.460938 10.78125 -7.578125 L 10.78125 0 L 7.78125 0 L 7.578125 -0.96875 C 6.972656 -0.570312 6.347656 -0.28125 5.703125 -0.09375 C 5.066406 0.09375 4.523438 0.1875 4.078125 0.1875 L 3.40625 0.1875 C 2.519531 0.1875 1.8125 -0.078125 1.28125 -0.609375 C 0.75 -1.140625 0.484375 -1.84375 0.484375 -2.71875 L 0.484375 -3.59375 C 0.484375 -4.476562 0.75 -5.1875 1.28125 -5.71875 C 1.8125 -6.25 2.519531 -6.515625 3.40625 -6.515625 L 7.390625 -6.515625 L 7.390625 -7.296875 C 7.390625 -7.484375 7.320312 -7.640625 7.1875 -7.765625 C 7.0625 -7.898438 6.898438 -7.96875 6.703125 -7.96875 C 5.859375 -7.96875 4.925781 -7.925781 3.90625 -7.84375 C 2.894531 -7.769531 2.078125 -7.710938 1.453125 -7.671875 Z M 1.453125 -10.109375 "/></g></g></g><g fill="#000000" fill-opacity="1"><g transform="translate(67.976767, 20.784524)"><g><path d="M 6.703125 -7.671875 C 6.015625 -7.671875 5.238281 -7.546875 4.375 -7.296875 L 4.375 0 L 0.96875 0 L 0.96875 -10.296875 L 3.984375 -10.296875 L 4.171875 -9.328125 C 4.785156 -9.734375 5.410156 -10.03125 6.046875 -10.21875 C 6.691406 -10.40625 7.234375 -10.5 7.671875 -10.5 L 8.546875 -10.5 C 9.429688 -10.5 10.140625 -10.234375 10.671875 -9.703125 C 11.203125 -9.171875 11.46875 -8.460938 11.46875 -7.578125 L 11.46875 0 L 8.0625 0 L 8.0625 -7 C 8.0625 -7.195312 7.992188 -7.359375 7.859375 -7.484375 C 7.734375 -7.609375 7.578125 -7.671875 7.390625 -7.671875 Z M 6.703125 -7.671875 "/></g></g></g><g fill="#000000" fill-opacity="1"><g transform="translate(80.219333, 20.784524)"><g/></g></g><g fill="#000000" fill-opacity="1"><g transform="translate(86.049128, 20.784524)"><g><path d="M 1.171875 -13.609375 L 9.328125 -13.609375 C 10.691406 -13.609375 11.679688 -13.300781 12.296875 -12.6875 C 12.910156 -12.070312 13.21875 -11.082031 13.21875 -9.71875 L 13.21875 -7.78125 C 13.21875 -6.414062 12.910156 -5.425781 12.296875 -4.8125 C 11.679688 -4.195312 10.691406 -3.890625 9.328125 -3.890625 L 4.671875 -3.890625 L 4.671875 0 L 1.171875 0 Z M 9.71875 -9.71875 C 9.71875 -10.5 9.328125 -10.890625 8.546875 -10.890625 L 4.671875 -10.890625 L 4.671875 -6.609375 L 8.546875 -6.609375 C 9.328125 -6.609375 9.71875 -7 9.71875 -7.78125 Z M 9.71875 -9.71875 "/></g></g></g><g fill="#000000" fill-opacity="1"><g transform="translate(99.846309, 20.784524)"><g><path d="M 5.046875 -2.53125 C 5.734375 -2.53125 6.515625 -2.660156 7.390625 -2.921875 L 7.390625 -4.078125 L 4.5625 -4.078125 C 4.375 -4.078125 4.210938 -4.007812 4.078125 -3.875 C 3.953125 -3.75 3.890625 -3.59375 3.890625 -3.40625 L 3.890625 -3.203125 C 3.890625 -3.015625 3.953125 -2.851562 4.078125 -2.71875 C 4.210938 -2.59375 4.375 -2.53125 4.5625 -2.53125 Z M 1.453125 -10.109375 C 3.828125 -10.367188 5.96875 -10.5 7.875 -10.5 C 8.75 -10.5 9.453125 -10.234375 9.984375 -9.703125 C 10.515625 -9.171875 10.78125 -8.460938 10.78125 -7.578125 L 10.78125 0 L 7.78125 0 L 7.578125 -0.96875 C 6.972656 -0.570312 6.347656 -0.28125 5.703125 -0.09375 C 5.066406 0.09375 4.523438 0.1875 4.078125 0.1875 L 3.40625 0.1875 C 2.519531 0.1875 1.8125 -0.078125 1.28125 -0.609375 C 0.75 -1.140625 0.484375 -1.84375 0.484375 -2.71875 L 0.484375 -3.59375 C 0.484375 -4.476562 0.75 -5.1875 1.28125 -5.71875 C 1.8125 -6.25 2.519531 -6.515625 3.40625 -6.515625 L 7.390625 -6.515625 L 7.390625 -7.296875 C 7.390625 -7.484375 7.320312 -7.640625 7.1875 -7.765625 C 7.0625 -7.898438 6.898438 -7.96875 6.703125 -7.96875 C 5.859375 -7.96875 4.925781 -7.925781 3.90625 -7.84375 C 2.894531 -7.769531 2.078125 -7.710938 1.453125 -7.671875 Z M 1.453125 -10.109375 "/></g></g></g><g fill="#000000" fill-opacity="1"><g transform="translate(111.408726, 20.784524)"><g><path d="M 4.953125 -8.0625 C 4.429688 -8.0625 4.171875 -7.804688 4.171875 -7.296875 L 4.171875 -6.21875 L 7.484375 -6.21875 L 7.484375 -7.296875 C 7.484375 -7.804688 7.222656 -8.0625 6.703125 -8.0625 Z M 10.5 -0.1875 C 8 0.0625 5.726562 0.1875 3.6875 0.1875 C 2.8125 0.1875 2.109375 -0.078125 1.578125 -0.609375 C 1.046875 -1.140625 0.78125 -1.84375 0.78125 -2.71875 L 0.78125 -7.390625 C 0.78125 -8.359375 1.054688 -9.117188 1.609375 -9.671875 C 2.160156 -10.222656 2.921875 -10.5 3.890625 -10.5 L 7.78125 -10.5 C 8.75 -10.5 9.507812 -10.222656 10.0625 -9.671875 C 10.613281 -9.117188 10.890625 -8.359375 10.890625 -7.390625 L 10.890625 -3.796875 L 4.171875 -3.796875 L 4.171875 -3.015625 C 4.171875 -2.816406 4.234375 -2.648438 4.359375 -2.515625 C 4.492188 -2.390625 4.660156 -2.328125 4.859375 -2.328125 C 6.140625 -2.328125 8.019531 -2.425781 10.5 -2.625 Z M 10.5 -0.1875 "/></g></g></g><g fill="#000000" fill-opacity="1"><g transform="translate(123.068314, 20.784524)"><g><path d="M 10.015625 -7.671875 L 4.671875 -2.625 L 10.015625 -2.625 L 10.015625 0 L 0.390625 0 L 0.390625 -2.625 L 5.734375 -7.671875 L 0.390625 -7.671875 L 0.390625 -10.296875 L 10.015625 -10.296875 Z M 10.015625 -7.671875 "/></g></g></g></svg>